<svg version="1.1" id="Layer_1" xmlns="http://www.w3.org/2000/svg" xmlns:xlink="http://www.w3.org/1999/xlink" x="0px" y="0px"
	 width="100%" viewBox="0 0 750 750" enable-background="new 0 0 750 750" xml:space="preserve">
<path fill="#000000" opacity="1.000000" stroke="none" 
	d="
M668.000000,751.000000 
	C445.333344,751.000000 223.166672,751.000000 1.000000,751.000000 
	C1.000000,501.000000 1.000000,251.000000 1.000000,1.000000 
	C251.000000,1.000000 501.000000,1.000000 751.000000,1.000000 
	C751.000000,251.000000 751.000000,501.000000 751.000000,751.000000 
	C723.500000,751.000000 696.000000,751.000000 668.000000,751.000000 
M439.335571,401.269012 
	C439.482269,401.372559 439.628937,401.476074 439.299072,402.130554 
	C432.555756,408.482513 424.621979,403.515594 417.000092,404.116699 
	C417.000092,407.241211 417.236298,410.068817 416.935303,412.838043 
	C416.618683,415.750916 418.268799,416.837189 420.506805,416.922699 
	C425.979279,417.131744 431.517334,417.483368 436.933899,416.897736 
	C447.210999,415.786499 453.701843,410.228546 453.968048,397.242645 
	C454.138519,388.928253 454.000000,380.607574 454.000000,372.289703 
	C454.000000,367.542145 454.000000,362.794586 454.000000,358.145203 
	C449.660797,358.145203 446.022736,358.145203 442.199921,358.145203 
	C442.045197,359.724976 441.902527,361.182129 441.772125,362.513550 
	C440.448822,362.272034 439.452698,362.195068 438.523438,361.904327 
	C429.434906,359.060791 420.611237,362.600616 415.281860,371.265137 
	C411.176178,377.940033 412.708527,388.748260 418.186707,394.762604 
	C423.948853,401.088623 431.220520,401.547028 439.335571,401.269012 
M217.000000,394.422607 
	C217.000000,383.337677 217.000000,372.252747 217.000000,361.001648 
	C212.916641,361.001648 208.857346,359.864563 206.094589,361.272186 
	C202.101532,363.306641 198.519836,361.879059 194.849915,361.872925 
	C188.864182,361.862976 184.147385,363.754089 180.177475,368.254028 
	C174.613785,374.560547 173.203278,382.016998 176.561249,389.975525 
	C179.804855,397.663025 186.005325,401.826355 194.372955,401.920471 
	C200.611282,401.990631 206.858063,401.338257 213.100433,400.995911 
	C214.360153,400.926849 215.616989,400.805176 217.000000,400.698090 
	C217.000000,398.702393 217.000000,397.050781 217.000000,394.422607 
M564.000000,381.772522 
	C564.000000,388.059204 564.000000,394.345856 564.000000,400.792542 
	C568.151062,400.792542 571.888611,400.792542 575.999451,400.792542 
	C575.999451,392.133728 576.624084,383.608795 575.708374,375.252625 
	C575.312683,371.641846 572.187134,367.964172 569.506897,365.047211 
	C564.172485,359.241699 557.022339,360.968475 549.867615,361.375092 
	C549.867615,357.399719 549.867615,353.307617 549.867615,349.276367 
	C545.708313,349.276367 541.968384,349.276367 538.274475,349.276367 
	C538.274475,366.625488 538.274475,383.696808 538.274475,400.721893 
	C542.295044,400.721893 546.035217,400.721893 550.000000,400.721893 
	C550.000000,394.138519 549.969788,387.830353 550.010498,381.522614 
	C550.038208,377.227173 553.741821,373.035217 557.438782,373.000397 
	C561.517029,372.962036 563.712708,375.586884 564.000000,381.772522 
M602.439392,361.000000 
	C590.722595,360.109619 580.757629,371.146973 581.974976,382.923279 
	C582.942810,392.286407 590.567871,402.676331 605.769287,401.031372 
	C613.544556,400.190033 621.421936,391.449768 620.507019,383.844238 
	C617.879333,383.844238 615.195435,383.844238 612.511597,383.844238 
	C612.512878,383.553070 612.514221,383.261932 612.515503,382.970764 
	C615.257202,382.970764 617.998840,382.970764 620.631653,382.970764 
	C622.895935,372.265961 614.804504,361.230316 602.439392,361.000000 
M499.000000,378.682678 
	C498.015594,367.269958 489.819397,359.768707 477.404297,361.061035 
	C466.773468,362.167664 458.364655,371.839294 460.114380,383.948242 
	C461.677094,394.762909 470.327179,402.695374 484.305817,400.975525 
	C491.977722,400.031586 499.431152,391.147522 498.466034,383.822083 
	C495.865479,383.822083 493.204712,383.822083 490.543976,383.822083 
	C492.357483,382.999878 494.180267,382.793488 495.937134,383.045990 
	C498.918549,383.474457 499.255646,381.863281 499.000000,378.682678 
M300.990723,385.270447 
	C298.174011,384.635162 295.357330,383.999878 291.882812,383.216248 
	C295.299713,383.058929 298.136322,382.928345 300.882935,382.801880 
	C301.587982,375.787445 299.484253,369.732544 294.823517,365.626099 
	C288.329407,359.904327 279.240631,358.686768 271.016724,364.031708 
	C263.524353,368.901245 260.851929,376.188110 262.061768,384.791748 
	C263.102936,392.196045 267.490356,397.524597 274.465302,399.898743 
	C285.075470,403.510223 296.995087,399.716949 300.990723,385.270447 
M373.024689,368.726410 
	C368.335236,376.082245 367.160553,383.581390 371.903839,391.434235 
	C376.107513,398.393768 382.210663,401.246857 390.292694,401.071289 
	C402.281433,400.810852 411.868988,388.386017 408.438477,375.944702 
	C404.253326,360.766327 385.443024,355.104095 373.024689,368.726410 
M121.000000,391.466248 
	C121.000000,381.706543 121.000000,371.946838 121.000000,361.802277 
	C126.332947,361.802277 131.080139,361.802277 135.699951,361.802277 
	C135.699951,357.327850 135.699951,353.255493 135.699951,349.296692 
	C121.661385,349.296692 107.924637,349.296692 94.299179,349.296692 
	C94.299179,353.673706 94.299179,357.747192 94.299179,362.203888 
	C99.337540,362.203888 104.083977,362.203888 109.201805,362.203888 
	C109.201805,375.340881 109.201805,388.082855 109.201805,400.698395 
	C113.341469,400.698395 117.081772,400.698395 121.000000,400.698395 
	C121.000000,397.750763 121.000000,395.103241 121.000000,391.466248 
M365.995911,360.306396 
	C365.995911,356.560242 365.995911,352.814056 365.995911,349.354614 
	C351.544952,349.354614 337.804657,349.354614 324.358917,349.354614 
	C324.358917,353.791718 324.358917,357.864624 324.358917,362.323334 
	C329.463470,362.323334 334.209930,362.323334 339.324219,362.323334 
	C339.324219,375.464905 339.324219,388.207336 339.324219,400.634186 
	C343.468353,400.634186 347.207489,400.634186 351.330688,400.634186 
	C351.330688,387.528870 351.330688,374.788605 351.330688,362.378815 
	C356.481354,361.986053 361.212158,361.625336 365.995911,360.306396 
M223.036743,372.274872 
	C224.691925,378.650513 226.472305,384.996857 227.973984,391.408447 
	C230.450485,401.982239 230.374557,402.000031 240.995255,402.000000 
	C241.828339,402.000000 242.686935,401.867584 243.490173,402.022400 
	C247.391418,402.774475 249.125595,400.781311 249.966766,397.279022 
	C252.849380,385.276855 255.811493,373.293762 258.780090,361.152893 
	C254.623657,361.152893 250.494080,361.152893 246.379745,361.152893 
	C244.165039,369.441772 241.986313,377.596008 239.617157,386.463013 
	C238.271484,381.109100 237.043076,376.612244 236.018707,372.069427 
	C233.438797,360.628235 233.475571,360.616913 221.980072,361.049805 
	C221.680756,361.061096 221.390869,361.322449 220.810699,361.607819 
	C221.530548,364.830231 222.266495,368.124725 223.036743,372.274872 
M505.000031,368.420837 
	C505.064941,369.873138 505.129822,371.325439 505.209961,373.117920 
	C506.895447,373.117920 508.300812,373.117920 510.000000,373.117920 
	C510.000000,375.600922 509.925018,377.742798 510.016479,379.877563 
	C510.177460,383.634277 509.625549,387.670959 510.817444,391.085968 
	C514.017273,400.254272 521.129028,403.454529 531.713989,401.421356 
	C531.713989,397.321655 531.713989,393.243744 531.713989,388.999298 
	C529.448242,388.999298 527.362671,389.379608 525.521667,388.872406 
	C524.181091,388.503082 522.266052,387.046692 522.161011,385.928894 
	C521.764038,381.705048 522.001465,377.421570 522.001465,372.788788 
	C525.674133,372.788788 528.751404,372.788788 531.705139,372.788788 
	C531.705139,368.654785 531.705139,364.913422 531.705139,360.797638 
	C528.333496,360.797638 525.256104,360.797638 521.806641,360.797638 
	C521.806641,356.669434 521.806641,352.923798 521.806641,349.291138 
	C517.668030,349.291138 513.928101,349.291138 509.828522,349.291138 
	C509.828522,353.336517 509.828522,357.094879 509.828522,360.801605 
	C508.039520,360.971893 506.625946,361.106476 505.000000,361.261261 
	C505.000000,363.521698 505.000000,365.496796 505.000031,368.420837 
M140.000000,375.504700 
	C140.000000,384.260956 140.000000,393.017212 140.000000,401.999969 
	C143.176468,401.999969 145.828476,401.824646 148.447601,402.043213 
	C151.913467,402.332428 153.203934,401.054443 153.064468,397.509247 
	C152.829254,391.529388 152.963669,385.533295 153.011124,379.544556 
	C153.051483,374.453003 157.263748,371.671997 162.052490,373.539520 
	C163.201401,373.987579 164.294861,374.577789 165.379272,375.086395 
	C166.993027,371.025360 168.498306,367.237274 170.110550,363.179993 
	C160.086075,358.927826 150.042801,361.971375 140.000000,360.872742 
	C140.000000,365.895111 140.000000,370.201508 140.000000,375.504700 
M628.000000,373.511017 
	C628.000000,382.943115 628.000000,392.375214 628.000000,401.705963 
	C632.325684,401.705963 636.066711,401.705963 640.000000,401.705963 
	C640.000000,395.434174 639.999146,389.454987 640.000183,383.475800 
	C640.001770,373.814697 644.138000,370.948669 652.812988,374.860138 
	C653.887817,372.187622 654.761536,369.418945 656.083069,366.883636 
	C657.654785,363.868286 657.296082,362.132294 653.634338,361.938873 
	C645.169556,361.491669 636.702087,361.096069 628.000000,360.667969 
	C628.000000,365.226135 628.000000,368.871643 628.000000,373.511017 
M307.000000,390.482849 
	C307.000000,394.254517 307.000000,398.026184 307.000000,401.716187 
	C311.639618,401.716187 315.712402,401.716187 319.718384,401.716187 
	C319.718384,384.027588 319.718384,366.624207 319.718384,349.284882 
	C315.358307,349.284882 311.285492,349.284882 307.000000,349.284882 
	C307.000000,362.875488 307.000000,376.182251 307.000000,390.482849 
z"/>
<path fill="#FFFFFF" opacity="1.000000" stroke="none" 
	d="
M438.925232,400.920044 
	C431.220520,401.547028 423.948853,401.088623 418.186707,394.762604 
	C412.708527,388.748260 411.176178,377.940033 415.281860,371.265137 
	C420.611237,362.600616 429.434906,359.060791 438.523438,361.904327 
	C439.452698,362.195068 440.448822,362.272034 441.772125,362.513550 
	C441.902527,361.182129 442.045197,359.724976 442.199921,358.145203 
	C446.022736,358.145203 449.660797,358.145203 454.000000,358.145203 
	C454.000000,362.794586 454.000000,367.542145 454.000000,372.289703 
	C454.000000,380.607574 454.138519,388.928253 453.968048,397.242645 
	C453.701843,410.228546 447.210999,415.786499 436.933899,416.897736 
	C431.517334,417.483368 425.979279,417.131744 420.506805,416.922699 
	C418.268799,416.837189 416.618683,415.750916 416.935303,412.838043 
	C417.236298,410.068817 417.000092,407.241211 417.000092,404.116699 
	C424.621979,403.515594 432.555756,408.482513 439.760132,401.663849 
	C440.352844,400.861816 440.484528,400.526520 440.616180,400.191162 
	C440.052521,400.434143 439.488861,400.677094 438.925232,400.920044 
M439.077850,386.379730 
	C441.862396,379.661285 439.959229,373.808197 434.587524,373.050446 
	C430.504669,372.474487 427.191986,373.851624 425.557800,377.942902 
	C423.850159,382.218079 425.531219,385.576385 428.800476,388.250000 
	C432.409790,391.201782 435.604889,389.709442 439.077850,386.379730 
z"/>
<path fill="#FFFFFF" opacity="1.000000" stroke="none" 
	d="
M217.000000,394.910889 
	C217.000000,397.050781 217.000000,398.702393 217.000000,400.698090 
	C215.616989,400.805176 214.360153,400.926849 213.100433,400.995911 
	C206.858063,401.338257 200.611282,401.990631 194.372955,401.920471 
	C186.005325,401.826355 179.804855,397.663025 176.561249,389.975525 
	C173.203278,382.016998 174.613785,374.560547 180.177475,368.254028 
	C184.147385,363.754089 188.864182,361.862976 194.849915,361.872925 
	C198.519836,361.879059 202.101532,363.306641 206.094589,361.272186 
	C208.857346,359.864563 212.916641,361.001648 217.000000,361.001648 
	C217.000000,372.252747 217.000000,383.337677 217.000000,394.910889 
M190.023529,387.537872 
	C194.878098,390.524658 198.146942,390.182526 201.185898,386.276855 
	C203.861801,382.837769 203.736984,379.417938 200.720551,376.269196 
	C197.748016,373.166260 193.179611,373.122314 189.839523,376.021301 
	C186.458878,378.955566 186.338654,382.571167 190.023529,387.537872 
z"/>
<path fill="#FFFFFF" opacity="1.000000" stroke="none" 
	d="
M564.000000,381.308380 
	C563.712708,375.586884 561.517029,372.962036 557.438782,373.000397 
	C553.741821,373.035217 550.038208,377.227173 550.010498,381.522614 
	C549.969788,387.830353 550.000000,394.138519 550.000000,400.721893 
	C546.035217,400.721893 542.295044,400.721893 538.274475,400.721893 
	C538.274475,383.696808 538.274475,366.625488 538.274475,349.276367 
	C541.968384,349.276367 545.708313,349.276367 549.867615,349.276367 
	C549.867615,353.307617 549.867615,357.399719 549.867615,361.375092 
	C557.022339,360.968475 564.172485,359.241699 569.506897,365.047211 
	C572.187134,367.964172 575.312683,371.641846 575.708374,375.252625 
	C576.624084,383.608795 575.999451,392.133728 575.999451,400.792542 
	C571.888611,400.792542 568.151062,400.792542 564.000000,400.792542 
	C564.000000,394.345856 564.000000,388.059204 564.000000,381.308380 
z"/>
<path fill="#FFFFFF" opacity="1.000000" stroke="none" 
	d="
M602.883423,361.000000 
	C614.804504,361.230316 622.895935,372.265961 620.631653,382.970764 
	C617.998840,382.970764 615.257202,382.970764 612.515503,382.970764 
	C612.514221,383.261932 612.512878,383.553070 612.511597,383.844238 
	C615.195435,383.844238 617.879333,383.844238 620.507019,383.844238 
	C621.421936,391.449768 613.544556,400.190033 605.769287,401.031372 
	C590.567871,402.676331 582.942810,392.286407 581.974976,382.923279 
	C580.757629,371.146973 590.722595,360.109619 602.883423,361.000000 
M602.992737,389.510376 
	C606.438904,388.794281 608.471741,386.843628 608.827576,383.188904 
	C603.850525,383.188904 599.170776,383.188904 594.030273,383.188904 
	C596.018433,386.883026 598.059143,389.768677 602.992737,389.510376 
z"/>
<path fill="#FFFFFF" opacity="1.000000" stroke="none" 
	d="
M499.000000,379.133545 
	C499.255646,381.863281 498.918549,383.474457 495.937134,383.045990 
	C494.180267,382.793488 492.357483,382.999878 490.543976,383.822083 
	C493.204712,383.822083 495.865479,383.822083 498.466034,383.822083 
	C499.431152,391.147522 491.977722,400.031586 484.305817,400.975525 
	C470.327179,402.695374 461.677094,394.762909 460.114380,383.948242 
	C458.364655,371.839294 466.773468,362.167664 477.404297,361.061035 
	C489.819397,359.768707 498.015594,367.269958 499.000000,379.133545 
M479.540192,383.000000 
	C477.215302,383.000000 474.890381,383.000000 472.304108,383.000000 
	C473.454620,386.873199 475.916687,389.761169 479.649750,389.793701 
	C483.219757,389.824829 486.351318,387.732208 486.929413,383.000000 
	C484.671692,383.000000 482.563538,383.000000 479.540192,383.000000 
z"/>
<path fill="#FFFFFF" opacity="1.000000" stroke="none" 
	d="
M300.994507,385.697266 
	C296.995087,399.716949 285.075470,403.510223 274.465302,399.898743 
	C267.490356,397.524597 263.102936,392.196045 262.061768,384.791748 
	C260.851929,376.188110 263.524353,368.901245 271.016724,364.031708 
	C279.240631,358.686768 288.329407,359.904327 294.823517,365.626099 
	C299.484253,369.732544 301.587982,375.787445 300.882935,382.801880 
	C298.136322,382.928345 295.299713,383.058929 291.882812,383.216248 
	C295.357330,383.999878 298.174011,384.635162 300.994507,385.697266 
M287.012054,387.472015 
	C287.731689,386.130280 288.451324,384.788574 289.249207,383.300934 
	C283.851349,383.300934 279.009125,383.300934 274.017914,383.300934 
	C277.703613,390.126282 279.957489,390.931641 287.012054,387.472015 
z"/>
<path fill="#FFFFFF" opacity="1.000000" stroke="none" 
	d="
M373.215302,368.400452 
	C385.443024,355.104095 404.253326,360.766327 408.438477,375.944702 
	C411.868988,388.386017 402.281433,400.810852 390.292694,401.071289 
	C382.210663,401.246857 376.107513,398.393768 371.903839,391.434235 
	C367.160553,383.581390 368.335236,376.082245 373.215302,368.400452 
M384.004944,387.508575 
	C386.972473,390.439484 390.120728,390.996094 393.389587,388.059204 
	C396.340057,385.408447 398.016235,382.636200 396.166656,378.257355 
	C394.401093,374.077454 391.670563,372.482330 387.524780,373.042572 
	C381.138611,373.905548 379.148438,380.856201 384.004944,387.508575 
z"/>
<path fill="#FFFFFF" opacity="1.000000" stroke="none" 
	d="
M121.000000,391.960999 
	C121.000000,395.103241 121.000000,397.750763 121.000000,400.698395 
	C117.081772,400.698395 113.341469,400.698395 109.201805,400.698395 
	C109.201805,388.082855 109.201805,375.340881 109.201805,362.203888 
	C104.083977,362.203888 99.337540,362.203888 94.299179,362.203888 
	C94.299179,357.747192 94.299179,353.673706 94.299179,349.296692 
	C107.924637,349.296692 121.661385,349.296692 135.699951,349.296692 
	C135.699951,353.255493 135.699951,357.327850 135.699951,361.802277 
	C131.080139,361.802277 126.332947,361.802277 121.000000,361.802277 
	C121.000000,371.946838 121.000000,381.706543 121.000000,391.960999 
z"/>
<path fill="#FFFFFF" opacity="1.000000" stroke="none" 
	d="
M365.969421,360.785492 
	C361.212158,361.625336 356.481354,361.986053 351.330688,362.378815 
	C351.330688,374.788605 351.330688,387.528870 351.330688,400.634186 
	C347.207489,400.634186 343.468353,400.634186 339.324219,400.634186 
	C339.324219,388.207336 339.324219,375.464905 339.324219,362.323334 
	C334.209930,362.323334 329.463470,362.323334 324.358917,362.323334 
	C324.358917,357.864624 324.358917,353.791718 324.358917,349.354614 
	C337.804657,349.354614 351.544952,349.354614 365.995911,349.354614 
	C365.995911,352.814056 365.995911,356.560242 365.969421,360.785492 
z"/>
<path fill="#FFFFFF" opacity="1.000000" stroke="none" 
	d="
M223.019592,371.847046 
	C222.266495,368.124725 221.530548,364.830231 220.810699,361.607819 
	C221.390869,361.322449 221.680756,361.061096 221.980072,361.049805 
	C233.475571,360.616913 233.438797,360.628235 236.018707,372.069427 
	C237.043076,376.612244 238.271484,381.109100 239.617157,386.463013 
	C241.986313,377.596008 244.165039,369.441772 246.379745,361.152893 
	C250.494080,361.152893 254.623657,361.152893 258.780090,361.152893 
	C255.811493,373.293762 252.849380,385.276855 249.966766,397.279022 
	C249.125595,400.781311 247.391418,402.774475 243.490173,402.022400 
	C242.686935,401.867584 241.828339,402.000000 240.995255,402.000000 
	C230.374557,402.000031 230.450485,401.982239 227.973984,391.408447 
	C226.472305,384.996857 224.691925,378.650513 223.019592,371.847046 
z"/>
<path fill="#FFFFFF" opacity="1.000000" stroke="none" 
	d="
M505.000000,367.946350 
	C505.000000,365.496796 505.000000,363.521698 505.000000,361.261261 
	C506.625946,361.106476 508.039520,360.971893 509.828522,360.801605 
	C509.828522,357.094879 509.828522,353.336517 509.828522,349.291138 
	C513.928101,349.291138 517.668030,349.291138 521.806641,349.291138 
	C521.806641,352.923798 521.806641,356.669434 521.806641,360.797638 
	C525.256104,360.797638 528.333496,360.797638 531.705139,360.797638 
	C531.705139,364.913422 531.705139,368.654785 531.705139,372.788788 
	C528.751404,372.788788 525.674133,372.788788 522.001465,372.788788 
	C522.001465,377.421570 521.764038,381.705048 522.161011,385.928894 
	C522.266052,387.046692 524.181091,388.503082 525.521667,388.872406 
	C527.362671,389.379608 529.448242,388.999298 531.713989,388.999298 
	C531.713989,393.243744 531.713989,397.321655 531.713989,401.421356 
	C521.129028,403.454529 514.017273,400.254272 510.817444,391.085968 
	C509.625549,387.670959 510.177460,383.634277 510.016479,379.877563 
	C509.925018,377.742798 510.000000,375.600922 510.000000,373.117920 
	C508.300812,373.117920 506.895447,373.117920 505.209961,373.117920 
	C505.129822,371.325439 505.064941,369.873138 505.000000,367.946350 
z"/>
<path fill="#FFFFFF" opacity="1.000000" stroke="none" 
	d="
M140.000000,375.006287 
	C140.000000,370.201508 140.000000,365.895111 140.000000,360.872742 
	C150.042801,361.971375 160.086075,358.927826 170.110550,363.179993 
	C168.498306,367.237274 166.993027,371.025360 165.379272,375.086395 
	C164.294861,374.577789 163.201401,373.987579 162.052490,373.539520 
	C157.263748,371.671997 153.051483,374.453003 153.011124,379.544556 
	C152.963669,385.533295 152.829254,391.529388 153.064468,397.509247 
	C153.203934,401.054443 151.913467,402.332428 148.447601,402.043213 
	C145.828476,401.824646 143.176468,401.999969 140.000000,401.999969 
	C140.000000,393.017212 140.000000,384.260956 140.000000,375.006287 
z"/>
<path fill="#FFFFFF" opacity="1.000000" stroke="none" 
	d="
M628.000000,373.014099 
	C628.000000,368.871643 628.000000,365.226135 628.000000,360.667969 
	C636.702087,361.096069 645.169556,361.491669 653.634338,361.938873 
	C657.296082,362.132294 657.654785,363.868286 656.083069,366.883636 
	C654.761536,369.418945 653.887817,372.187622 652.812988,374.860138 
	C644.138000,370.948669 640.001770,373.814697 640.000183,383.475800 
	C639.999146,389.454987 640.000000,395.434174 640.000000,401.705963 
	C636.066711,401.705963 632.325684,401.705963 628.000000,401.705963 
	C628.000000,392.375214 628.000000,382.943115 628.000000,373.014099 
z"/>
<path fill="#FFFFFF" opacity="1.000000" stroke="none" 
	d="
M307.000000,389.985931 
	C307.000000,376.182251 307.000000,362.875488 307.000000,349.284882 
	C311.285492,349.284882 315.358307,349.284882 319.718384,349.284882 
	C319.718384,366.624207 319.718384,384.027588 319.718384,401.716187 
	C315.712402,401.716187 311.639618,401.716187 307.000000,401.716187 
	C307.000000,398.026184 307.000000,394.254517 307.000000,389.985931 
z"/>
<path fill="#000000" opacity="1.000000" stroke="none" 
	d="
M438.815735,386.672729 
	C435.604889,389.709442 432.409790,391.201782 428.800476,388.250000 
	C425.531219,385.576385 423.850159,382.218079 425.557800,377.942902 
	C427.191986,373.851624 430.504669,372.474487 434.587524,373.050446 
	C439.959229,373.808197 441.862396,379.661285 438.815735,386.672729 
z"/>
<path fill="#000000" opacity="1.000000" stroke="none" 
	d="
M439.130402,401.094543 
	C439.488861,400.677094 440.052521,400.434143 440.616180,400.191162 
	C440.484528,400.526520 440.352844,400.861816 439.998413,401.388367 
	C439.628937,401.476074 439.482269,401.372559 439.130402,401.094543 
z"/>
<path fill="#000000" opacity="1.000000" stroke="none" 
	d="
M189.749298,387.260956 
	C186.338654,382.571167 186.458878,378.955566 189.839523,376.021301 
	C193.179611,373.122314 197.748016,373.166260 200.720551,376.269196 
	C203.736984,379.417938 203.861801,382.837769 201.185898,386.276855 
	C198.146942,390.182526 194.878098,390.524658 189.749298,387.260956 
z"/>
<path fill="#000000" opacity="1.000000" stroke="none" 
	d="
M602.674316,389.735779 
	C598.059143,389.768677 596.018433,386.883026 594.030273,383.188904 
	C599.170776,383.188904 603.850525,383.188904 608.827576,383.188904 
	C608.471741,386.843628 606.438904,388.794281 602.674316,389.735779 
z"/>
<path fill="#000000" opacity="1.000000" stroke="none" 
	d="
M479.997803,383.000000 
	C482.563538,383.000000 484.671692,383.000000 486.929413,383.000000 
	C486.351318,387.732208 483.219757,389.824829 479.649750,389.793701 
	C475.916687,389.761169 473.454620,386.873199 472.304108,383.000000 
	C474.890381,383.000000 477.215302,383.000000 479.997803,383.000000 
z"/>
<path fill="#000000" opacity="1.000000" stroke="none" 
	d="
M286.695953,387.716492 
	C279.957489,390.931641 277.703613,390.126282 274.017914,383.300934 
	C279.009125,383.300934 283.851349,383.300934 289.249207,383.300934 
	C288.451324,384.788574 287.731689,386.130280 286.695953,387.716492 
z"/>
<path fill="#000000" opacity="1.000000" stroke="none" 
	d="
M383.721924,387.234528 
	C379.148438,380.856201 381.138611,373.905548 387.524780,373.042572 
	C391.670563,372.482330 394.401093,374.077454 396.166656,378.257355 
	C398.016235,382.636200 396.340057,385.408447 393.389587,388.059204 
	C390.120728,390.996094 386.972473,390.439484 383.721924,387.234528 
z"/>
</svg>